# xmcd
# Copyright (C) 1995-1998 Ti Kan
#
# Track frame offsets:
#       150
#       14880
#       29609
#
# Disc length: 571 seconds
#
# Revision: 0
# Processed by: cddbd v1.5.2PL0 Copyright (c) Steve Scherf et al.
# Submitted via: CD-Transfer v1.0
#
DISCID=24023903
DTITLE=Wolfgang Nigelhell - 
DYEAR=1900
DGENRE=
TTITLE0=Wohin Ich Auch Geh
TTITLE1=Fliegen Musst Du Selbst
TTITLE2=
EXTD=
EXTT0=
EXTT1=
EXTT2=
PLAYORDER=
